{"title":"Kendall - X-Art - A Blonde In My Bedroom","uid":9729576,"size":170208592,"categoryP":"porn","categoryS":"movie_clips","magnet":"?xt=urn:btih:7b57f7f508e2c81157f2e6b1bda170abf8b36444&amp;dn=Kendall+-+X-Art+-+A+Blonde+In+My+Bedroom&amp;tr=udp%3A%2F%2Ftracker.openbittorrent.com%3A80&amp;tr=udp%3A%2F%2Fopen.demonii.com%3A1337&amp;tr=udp%3A%2F%2Ftracker.coppersurfer.tk%3A6969&amp;tr=udp%3A%2F%2Fexodus.desync.com%3A6969","seeders":1,"leechers":0,"uploader":"athklym","files":-1,"time":1394350551,"description":" &lt;a href=&quot;http://bayimg.com/gaLJLaAfd&quot; rel=&quot;nofollow&quot; target=&quot;_NEW&quot;&gt;http://bayimg.com/gaLJLaAfd&lt;/a&gt;\nWe only allow a few girls in our bedroom and Kendall was one of the lucky ones. She is such a sweet and wonderful person and her tiny perfect body is a feast for the eyes. Watch her make herself cum with her tiny silver bullet, she is out of this world! You will love Kendall!\n\nKendall_X-Art_A_Blonde_In_My_Bedroom.mp4\nFormat : MPEG-4\nFormat profile : Base Media\nCodec ID : isom\nFile size : 162 MiB\nDuration : 9mn 1s\nOverall bit rate mode : Variable\nOverall bit rate : 2 513 Kbps\nWriting application : Lavf54.22.100\n\nVideo\nID : 1\nFormat : MPEG-4 Visual\nFormat profile : Simple@L1\nFormat settings, BVOP : No\nFormat settings, QPel : No\nFormat settings, GMC : No warppoints\nFormat settings, Matrix : Default (H.263)\nCodec ID : 20\nDuration : 9mn 1s\nBit rate mode : Variable\nBit rate : 2 397 Kbps\nMaximum bit rate : 5 000 Kbps\nWidth : 1 280 pixels\nHeight : 720 pixels\nDisplay aspect ratio : 16:9\nFrame rate mode : Constant\nFrame rate : 23.976 fps\nColor space : YUV\nChroma subsampling : 4:2:0\nBit depth : 8 bits\nScan type : Progressive\nCompression mode : Lossy\nBits/(Pixel*Frame) : 0.108\nStream size : 155 MiB (95%)\nWriting library : Lavc54.46.100\nLanguage : English\n\nAudio\nID : 2\nFormat : AAC\nFormat/Info : Advanced Audio Codec\nFormat profile : LC\nCodec ID : 40\nDuration : 9mn 1s\nBit rate mode : Variable\nBit rate : 111 Kbps\nMaximum bit rate : 128 Kbps\nChannel count : 2 channels\nChannel positions : Front: L R\nSampling rate : 48.0 KHz\nCompression mode : Lossy\nStream size : 7.18 MiB (4%)\nLanguage : English","torrent":{"xt":"urn:btih:7b57f7f508e2c81157f2e6b1bda170abf8b36444","amp;dn":"Kendall+-+X-Art+-+A+Blonde+In+My+Bedroom","amp;tr":["udp%3A%2F%2Ftracker.openbittorrent.com%3A80","udp%3A%2F%2Fopen.demonii.com%3A1337","udp%3A%2F%2Ftracker.coppersurfer.tk%3A6969","udp%3A%2F%2Fexodus.desync.com%3A6969"],"infoHash":"7b57f7f508e2c81157f2e6b1bda170abf8b36444","infoHashBuffer":{"type":"Buffer","data":[123,87,247,245,8,226,200,17,87,242,230,177,189,161,112,171,248,179,100,68]},"announce":[],"urlList":[]}}